:SAMPLES-PER-SECOND 30
:FULLY-SPECIFIED
:DEGREES
877
root  56.8969 38.0441 -0.864675 54.358 81.2418 60.2823
RightUpLeg  2.22093 0.188781 -12.5406
RightLeg  53.8506 4.00312 5.46387
RightFoot  2.23613 -1.58442 13.2901
RightToes  -1.74624e-010 0 -3.6325e-017
Spine  2.95375 2.08957 -1.76005
Spine1  9.01167 4.04156 -10.5423
HEad  -6.65702 1.92119 -7.40759
LeftShoulder1  -0.917143 5.72191 -35.1419
LeftArm  -0.373617 9.59205 -36.1993
LeftForeArm  34.6976 -9.31235 -9.19351
LeftHand  -0.0378428 7.14917 0.143381
RightShoulder  -1.00079 -6.13106 31.4965
RightArm  14.1304 4.4585 52.9528
RightForeArm  31.5755 -1.32993 8.03219
RightHand  0.00175283 2.38319 -0.170438
LeftUpLeg  -10.8605 6.25378 -8.47341
LeftLeg  17.8729 6.24316 0.625351
LeftFoot  -1.0067 -0.496555 5.54496
LeftToes  2.27646e-009 -8.13696e-011 -1.44715e-011
878
root  57.7643 38.162 -0.948901 55.11 81.6126 61.3317
RightUpLeg  -1.87173 0.305788 -12.358
RightLeg  58.9406 2.65901 4.32081
RightFoot  0.945665 -1.31194 12.2158
RightToes  -1.74624e-010 0 -3.6325e-017
Spine  3.38852 1.45131 -2.8236
Spine1  9.52046 2.97558 -9.36812
HEad  -8.05885 1.4165 -7.77672
LeftShoulder1  -0.990827 5.90491 -35.0582
LeftArm  0.638147 2.85617 -37.5205
LeftForeArm  36.0654 -8.41123 -9.97008
LeftHand  -0.0807608 8.65165 -1.10261
RightShoulder  -1.10165 -6.36058 32.0066
RightArm  15.4513 0.208423 50.6201
RightForeArm  30.2081 1.69828 8.39113
RightHand  -0.00485611 3.1291 -0.298469
LeftUpLeg  -8.90949 5.21419 -8.31385
LeftLeg  17.6392 7.04673 0.712083
LeftFoot  -2.40052 -0.388507 5.15547
LeftToes  2.27646e-009 -8.13696e-011 -1.44715e-011
879
root  58.6318 38.2801 -0.999865 58.3526 82.5198 64.9166
RightUpLeg  -5.31384 -0.204778 -11.8543
RightLeg  61.1401 1.87096 3.18617
RightFoot  -0.00564827 -1.1913 11.9599
RightToes  -1.74624e-010 0 -3.6325e-017
Spine  3.45577 0.526472 -4.3936
Spine1  10.1624 1.34935 -7.13471
HEad  -9.18354 1.94158 -8.2153
LeftShoulder1  -0.96634 5.85087 -34.9569
LeftArm  1.73798 -3.03273 -38.4903
LeftForeArm  36.193 -8.23879 -10.4039
LeftHand  -0.079446 8.55477 -1.1382
RightShoulder  -1.03501 -6.19696 31.8496
RightArm  16.1632 -4.11891 48.1874
RightForeArm  26.1368 5.30884 8.31436
RightHand  -0.0287806 3.96825 -0.620376
LeftUpLeg  -6.87007 5.26163 -7.78241
LeftLeg  17.3636 6.09029 0.346248
LeftFoot  -3.82052 -0.314225 5.12856
LeftToes  2.27646e-009 -8.13696e-011 -1.44715e-011
880
root  59.4582 38.3947 -1.03404 63.5714 83.3967 70.0309
RightUpLeg  -8.93023 -0.936129 -11.2735
RightLeg  60.8539 1.25366 1.94348
RightFoot  -0.580148 -1.00385 10.5828
RightToes  -1.74624e-010 0 -3.6325e-017
Spine  3.74392 -0.252006 -5.5667
Spine1  9.68631 -0.01403 -5.25112
HEad  -8.84173 1.47408 -8.06037
LeftShoulder1  -0.871231 5.6561 -34.3002
LeftArm  1.53048 -7.3971 -39.937
LeftForeArm  35.6351 -9.26323 -9.94093
LeftHand  -0.0578148 8.21262 -0.485126
RightShoulder  -1.002 -6.14975 31.2938
RightArm  17.8728 -8.45394 45.9352
RightForeArm  22.4653 9.07563 8.03464
RightHand  -0.0568035 4.38583 -0.956454
LeftUpLeg  -5.24274 5.27311 -7.2465
LeftLeg  16.7659 5.03429 -0.11523
LeftFoot  -4.86218 -0.26679 5.23524
LeftToes  2.27646e-009 -8.13696e-011 -1.44715e-011
881
root  60.2076 38.4889 -1.06567 62.4983 83.9879 69.2376
RightUpLeg  -11.7502 -0.742731 -10.46
RightLeg  57.8178 0.981237 1.2459
RightFoot  -1.35873 -0.820341 9.26999
RightToes  -1.74624e-010 0 -3.6325e-017
Spine  4.55492 -0.66941 -6.26979
Spine1  9.47761 -0.860522 -3.77126
HEad  -8.65156 1.43216 -7.698
LeftShoulder1  -0.883998 5.70404 -33.9963
LeftArm  0.512405 -12.6309 -41.063
LeftForeArm  34.5355 -9.5805 -9.54125
LeftHand  -0.0193448 7.99037 0.994818
RightShoulder  -1.03458 -6.2332 31.3367
RightArm  20.5494 -10.7382 43.6888
RightForeArm  19.6854 11.7169 7.5453
RightHand  -0.0289505 4.09211 -0.628187
LeftUpLeg  -3.36631 5.59277 -6.55101
LeftLeg  16.2704 4.57559 -0.309899
LeftFoot  -5.8863 -0.225277 5.46271
LeftToes  2.27646e-009 -8.13696e-011 -1.44715e-011
882
root  61.0279 38.6235 -1.11366 61.6711 84.3658 68.546
RightUpLeg  -13.4914 -0.393821 -9.91009
RightLeg  51.6223 0.661255 0.545695
RightFoot  -1.6722 -0.703933 8.18433
RightToes  -1.74624e-010 0 -3.6325e-017
Spine  5.17822 -0.983595 -6.28967
Spine1  8.81183 -1.27279 -2.92613
HEad  -8.13088 1.59561 -7.22131
LeftShoulder1  -0.872328 5.69973 -33.5482
LeftArm  1.07683 -16.8117 -41.8295
LeftForeArm  32.6075 -11.1683 -8.90191
LeftHand  -0.0234518 7.31314 0.918547
RightShoulder  -1.07579 -6.34324 31.3333
RightArm  20.8333 -13.0285 41.9289
RightForeArm  18.5768 12.8619 6.98745
RightHand  -0.0755397 4.23879 -1.18382
LeftUpLeg  -1.13939 5.62897 -6.19369
LeftLeg  14.9813 4.41865 -0.338982
LeftFoot  -6.54719 -0.187036 5.41375
LeftToes  2.27646e-009 -8.13696e-011 -1.44715e-011
883
root  61.8086 38.6552 -1.12756 61.3335 84.9042 67.8459
RightUpLeg  -14.8684 -0.220845 -9.20591
RightLeg  43.2733 0.361267 0.0690859
RightFoot  -2.06066 -0.73301 8.83825
RightToes  -1.74624e-010 0 -3.6325e-017
Spine  4.69188 -1.31048 -6.28868
Spine1  9.29614 -1.68948 -2.06871
HEad  -8.58651 1.36886 -6.87338
LeftShoulder1  -0.846898 5.65075 -33.2779
LeftArm  2.92437 -21.5813 -42.3247
LeftForeArm  28.4848 -12.3918 -8.64688
LeftHand  -0.0233077 7.47361 0.914302
RightShoulder  -1.01985 -6.22711 30.8783
RightArm  19.2059 -13.7947 41.1364
RightForeArm  18.5325 11.9086 7.01276
RightHand  -0.122895 4.81599 -1.70198
LeftUpLeg  -0.20271 6.03243 -5.58972
LeftLeg  15.0104 3.80404 -0.437566
LeftFoot  -7.72588 -0.130293 5.59688
LeftToes  2.27646e-009 -8.13696e-011 -1.44715e-011
884
root  62.589 38.6427 -1.11106 62.8729 84.896 69.5406
RightUpLeg  -14.9407 0.193019 -9.17717
RightLeg  33.4442 0.634412 0.195935
RightFoot  -1.86049 -0.72723 8.60137
RightToes  -1.74624e-010 0 -3.6325e-017
Spine  5.03362 -1.46171 -7.26214
Spine1  9.3228 -2.1426 -0.616389
HEad  -8.88114 0.686091 -6.53918
LeftShoulder1  -0.838099 5.642 -33.0252
LeftArm  6.3443 -24.8231 -42.878
LeftForeArm  22.9805 -14.9949 -7.71613
LeftHand  0.00755652 7.07333 3.13088
RightShoulder  -0.94391 -6.04662 30.5375
RightArm  16.8527 -13.6226 40.6028
RightForeArm  19.6778 9.70344 7.15107
RightHand  -0.0956852 5.10163 -1.35003
LeftUpLeg  1.49091 6.2171 -5.55491
LeftLeg  14.6172 3.64272 -0.455638
LeftFoot  -8.8557 -0.0679479 5.57729
LeftToes  2.27646e-009 -8.13696e-011 -1.44715e-011
885
root  63.3884 38.6409 -1.09797 59.9275 84.603 66.3365
RightUpLeg  -14.571 1.05767 -9.3065
RightLeg  22.3255 1.40291 0.495203
RightFoot  -1.31614 -0.789659 8.87652
RightToes  -1.74624e-010 0 -3.6325e-017
Spine  4.88453 -1.34985 -6.78338
Spine1  9.32016 -1.81912 -0.760321
HEad  -8.73134 -0.593021 -6.04864
LeftShoulder1  -0.791844 5.53809 -32.7658
LeftArm  10.4509 -26.961 -43.4612
LeftForeArm  17.6855 -18.6545 -5.90319
LeftHand  0.0198568 6.39432 5.15524
RightShoulder  -0.992334 -6.16837 30.6724
RightArm  14.0557 -13.1574 40.3997
RightForeArm  21.7492 7.27091 6.66913
RightHand  -0.0314054 3.78867 -0.665391
LeftUpLeg  2.94943 6.17222 -5.67699
LeftLeg  13.8799 3.95543 -0.406943
LeftFoot  -9.79373 -0.0142399 5.42463
LeftToes  2.27646e-009 -8.13696e-011 -1.44715e-011
886
root  64.177 38.6485 -1.07195 62.462 84.5783 68.3163
RightUpLeg  -14.1796 -0.32682 -8.98699
RightLeg  11.6573 3.50073 0.0498516
RightFoot  -0.139421 -0.922777 9.38103
RightToes  -1.74624e-010 0 -3.6325e-017
Spine  3.96369 -1.52202 -6.28435
Spine1  9.9987 -1.84726 -0.654012
HEad  -8.72756 -1.36601 -5.99694
LeftShoulder1  -0.804812 5.58714 -32.4596
LeftArm  13.7737 -28.7272 -43.9713
LeftForeArm  14.4192 -21.9222 -4.52832
LeftHand  -0.0240955 5.50232 3.55589
RightShoulder  -0.899237 -5.961 29.9923
RightArm  11.9769 -12.6284 41.3905
RightForeArm  21.328 4.97012 6.01404
RightHand  -0.0324945 3.56414 -0.671464
LeftUpLeg  4.00598 6.0733 -5.75231
LeftLeg  13.2286 3.78572 -0.436363
LeftFoot  -10.5016 0.0239616 5.33595
LeftToes  2.27646e-009 -8.13696e-011 -1.44715e-011
887
root  65.0367 38.6328 -1.01249 68.2421 84.706 73.6467
RightUpLeg  -13.5282 -6.19562 -7.25665
RightLeg  2.88068 8.89047 -1.34769
RightFoot  1.11529 -1.01934 9.39447
RightToes  -1.74624e-010 0 -3.6325e-017
Spine  2.67057 -1.72883 -5.92046
Spine1  11.1059 -2.06592 -0.140078
HEad  -8.87063 -1.99559 -6.36687
LeftShoulder1  -0.732168 5.4164 -32.1285
LeftArm  12.7639 -29.3526 -44.3856
LeftForeArm  14.8874 -24.8489 -4.47108
LeftHand  -0.0312187 5.17885 4.3264
RightShoulder  -0.794949 -5.72595 29.156
RightArm  9.82331 -12.5777 42.4375
RightForeArm  21.1917 4.29976 5.21705
RightHand  -0.0163301 2.95712 -0.455096
LeftUpLeg  5.29881 6.28664 -5.45552
LeftLeg  12.6226 2.87443 -0.80381
LeftFoot  -11.4754 0.0756203 5.21323
LeftToes  2.27646e-009 -8.13696e-011 -1.44715e-011
888
root  65.9684 38.5458 -0.889215 77.1023 84.8115 82.0146
RightUpLeg  -13.4252 -7.71859 -6.90364
RightLeg  -1.7817 8.85436 -1.27054
RightFoot  1.37676 -1.03171 9.28945
RightToes  -1.74624e-010 0 -3.6325e-017
Spine  1.7865 -1.84306 -5.23638
Spine1  11.4023 -2.085 -0.19128
HEad  -8.31375 -2.95559 -6.50559
LeftShoulder1  -0.723334 5.382 -32.3521
LeftArm  9.72357 -28.4074 -44.658
LeftForeArm  18.5 -28.507 -5.15518
LeftHand  -0.039797 4.91782 4.20156
RightShoulder  -0.820346 -5.80369 29.0376
RightArm  9.2752 -12.7711 42.5815
RightForeArm  20.4832 5.10185 4.9864
RightHand  0.000911925 2.14912 -0.176687
LeftUpLeg  6.44212 6.40314 -5.18711
LeftLeg  12.4664 1.75138 -0.930744
LeftFoot  -12.7807 0.139656 5.07127
LeftToes  2.27646e-009 -8.13696e-011 -1.44715e-011
889
root  66.9388 38.3977 -0.752738 75.3939 84.2694 80.5428
RightUpLeg  -13.671 -7.80691 -6.87595
RightLeg  -0.843283 8.01366 -0.932818
RightFoot  1.40127 -0.907318 8.42871
RightToes  -1.74624e-010 0 -3.6325e-017
Spine  1.38858 -1.56917 -4.1358
Spine1  12.1274 -1.44697 -1.40053
HEad  -8.54841 -3.74702 -6.55119
LeftShoulder1  -0.710587 5.36079 -32.1044
LeftArm  9.4977 -27.7146 -45.0089
LeftForeArm  20.1443 -30.9095 -5.63388
LeftHand  -0.0470225 4.71688 4.49827
RightShoulder  -0.920846 -6.03372 29.8235
RightArm  9.72465 -11.752 42.3083
RightForeArm  19.8411 6.05288 5.16601
RightHand  0.0306998 2.87346 0.235248
LeftUpLeg  8.46364 6.29571 -5.54832
LeftLeg  12.2524 2.06755 -0.585248
LeftFoot  -14.2637 0.194438 4.25558
LeftToes  2.27646e-009 -8.13696e-011 -1.44715e-011
890
root  67.9284 38.328 -0.579846 72.8347 84.3257 78.4459
RightUpLeg  -14.1791 -7.38859 -6.15315
RightLeg  3.14149 7.68291 -0.625216
RightFoot  7.10843 -0.574558 3.79617
RightToes  -1.74624e-010 0 -3.6325e-017
Spine  1.11748 -1.35251 -2.74285
Spine1  13.1874 -1.09282 -1.70175
HEad  -8.04777 -4.06914 -6.4939
LeftShoulder1  -0.739883 5.41584 -32.5387
LeftArm  10.3995 -26.2993 -44.1849
LeftForeArm  21.3255 -33.3333 -6.16702
LeftHand  -0.0670606 4.06678 4.25491
RightShoulder  -0.925211 -6.03447 29.978
RightArm  10.3137 -10.331 42.7514
RightForeArm  18.4713 7.01838 5.51934
RightHand  -0.0344394 3.79839 -0.709985
LeftUpLeg  11.0688 6.24057 -5.22016
LeftLeg  11.3341 2.25814 -0.11673
LeftFoot  -15.2651 0.210047 3.43528
LeftToes  2.27646e-009 -8.13696e-011 -1.44715e-011
891
root  68.902 38.2324 -0.360523 78.5073 85.1449 84.271
RightUpLeg  -14.4464 -7.09471 -5.46878
RightLeg  6.35077 7.70101 -0.0779695
RightFoot  11.7264 -0.39861 2.29053
RightToes  -1.74624e-010 0 -3.6325e-017
Spine  1.49887 -1.60829 -1.5201
Spine1  12.7318 -1.45286 -1.16161
HEad  -7.03137 -4.23631 -6.6274
LeftShoulder1  -0.655238 5.20018 -32.4728
LeftArm  12.4163 -23.3554 -43.3112
LeftForeArm  21.8151 -35.0504 -6.58423
LeftHand  -0.0704729 3.93927 4.21593
RightShoulder  -0.974563 -6.15184 30.2308
RightArm  11.2587 -8.81497 42.8069
RightForeArm  19.0876 8.29418 5.85111
RightHand  -0.0184891 4.43982 -0.501395
LeftUpLeg  12.7602 6.22741 -4.04457
LeftLeg  11.5623 1.35744 0.281311
LeftFoot  -16.5181 0.225147 2.80043
LeftToes  2.27646e-009 -8.13696e-011 -1.44715e-011
